<svg xmlns="http://www.w3.org/2000/svg" width="350" height="150" viewBox="0 0 350 150" fill="none">
  <path fill-rule="evenodd" clip-rule="evenodd" d="M75.5624 19.6168C89.4736 7.80311 113.475 0 140.751 0C168.083 0 192.126 7.8351 206.024 19.6895C207.711 19.6288 209.412 19.598 211.126 19.598C241.373 19.598 267.592 29.1933 280.492 43.2124C319.567 45.537 350 63.9439 350 86.3065C350 109.281 317.879 128.08 277.265 129.555C263.514 141.831 239.034 150 211.126 150C190.646 150 172.013 145.601 158.11 138.408C144.207 145.601 125.574 150 105.094 150C62.0808 150 27.2118 130.595 27.2118 106.658C27.2118 103.264 27.9131 99.9602 29.2394 96.7903C11.4151 88.8477 0 76.6355 0 62.9397C0 39.4345 33.6223 20.2996 75.5624 19.6168Z" fill="white"/>
</svg>